<svg width="1517" height="376.99999999999994" xmlns="http://www.w3.org/2000/svg" class="icon">

    <g>
        <title>background</title>
        <rect fill="none" id="canvas_background" height="379" width="1519" y="-1" x="-1"/>
    </g>
    <g>
        <title>Layer 1</title>
        <text font-weight="bold" xml:space="preserve" text-anchor="start" font-family="'Trebuchet MS', Gadget, sans-serif" font-size="250" id="svg_23" y="291.454376" x="447.12594" stroke-opacity="null" stroke-width="0" stroke="null" fill="#02b3e3">FlyPortal</text>
        <g stroke="null" id="svg_24">
            <path stroke="null" id="svg_1" fill="#00B3E3" d="m185.060349,4.238427c17.304263,0 33.092174,6.555997 44.955406,17.348862c6.333004,-2.631318 13.245789,-4.058474 20.515364,-4.058474c27.517347,0 50.173444,20.738357 53.20615,47.452928c0.222993,2.006938 0.668979,6.110011 -5.084242,6.110011l-175.049571,0c-3.478692,0 -5.307235,-4.415263 -5.084242,-6.600595c3.344896,-33.805752 31.843412,-60.252731 66.541136,-60.252731z"/>
            <path stroke="null" id="svg_2" fill="#0071CE" d="m146.437947,59.897501c0.490585,-4.638256 -2.988107,-8.473737 -7.670962,-8.473737l-95.75323,0c-4.682855,0 -8.116948,3.790882 -7.670962,8.473737l3.790882,37.685831c0.490585,4.638256 4.682855,8.473737 9.36571,8.473737l84.781971,0c4.682855,0 8.875125,-3.790882 9.36571,-8.473737l3.790882,-37.685831z"/>
            <path stroke="null" id="svg_3" d="m35.565786,62.305826l1.29336,12.755204l108.062449,0l1.29336,-12.755204l-110.649168,0z"/>
            <path stroke="null" id="svg_4" d="m37.438928,80.725055l1.694747,16.858277c0.490585,4.638256 4.682855,8.473737 9.36571,8.473737l84.781971,0c4.682855,0 8.875125,-3.790882 9.36571,-8.473737l1.694747,-16.858277l-106.902885,0z"/>
            <path stroke="null" id="svg_5" fill="#A4A9AD" d="m54.431001,151.81525l72.963337,0l0,207.784956l-72.963337,0l0,-207.784956z"/>
            <path stroke="null" id="svg_6" d="m54.431001,151.81525l72.963337,0l0,39.157586l-72.963337,0l0,-39.157586z"/>
            <path stroke="null" id="svg_7" fill="#333E48" d="m405.154523,365.754815c0,1.873142 -1.560952,3.434093 -3.434093,3.434093l-391.977243,0c-1.873142,0 -3.434093,-1.560952 -3.434093,-3.434093l0,-12.309218c0,-1.873142 1.560952,-3.434093 3.434093,-3.434093l391.977243,0c1.873142,0 3.434093,1.560952 3.434093,3.434093l0,12.309218z"/>
            <path stroke="null" id="svg_8" fill="#A4A9AD" d="m157.097016,96.02238c0.579782,-4.638256 -2.765114,-8.429139 -7.447969,-8.429139l-117.561954,0c-4.682855,0 -8.027751,3.790882 -7.447969,8.429139l8.38454,65.738361c0.579782,4.638256 4.905848,8.429139 9.588703,8.429139l96.556005,0c4.682855,0 9.008921,-3.790882 9.588703,-8.429139l8.339941,-65.738361z"/>
            <path stroke="null" id="svg_9" fill="#D1D3D3" d="m63.261527,87.593242l55.213088,0l0,35.277506l-55.213088,0l0,-35.277506z"/>
            <path stroke="null" id="svg_10" fill="#0071CE" d="m26.779858,112.47927l4.147671,32.824582l119.925681,0l4.147671,-32.824582l-128.221023,0z"/>
            <path stroke="null" id="svg_11" d="m84.490468,112.47927l12.755204,0l0,32.824582l-12.755204,0l0,-32.824582zm-39.157586,0l12.755204,0l0,32.824582l-12.755204,0l0,-32.824582zm78.35977,0l12.755204,0l0,32.824582l-12.755204,0l0,-32.824582z"/>
            <path stroke="null" id="svg_12" fill="#D1D3D3" d="m54.431001,220.452521l72.963337,0l0,56.997032l-72.963337,0l0,-56.997032zm50.039648,-159.440055c0,7.492568 -6.065412,13.55798 -13.55798,13.55798c-7.492568,0 -13.55798,-6.065412 -13.55798,-13.55798l0,-9.588703c0,-7.492568 6.065412,-13.55798 13.55798,-13.55798s13.55798,6.065412 13.55798,13.55798l0,9.588703z"/>
            <path stroke="null" id="svg_13" fill="#A4A9AD" d="m401.72043,350.011503l-243.508448,0l0,19.177405l243.508448,0c1.873142,0 3.434093,-1.560952 3.434093,-3.434093l0,-12.309218c0,-1.917741 -1.560952,-3.434093 -3.434093,-3.434093z"/>
            <path stroke="null" id="svg_14" fill="#D1D3D3" d="m344.812595,256.354408l-117.026771,0l-25.599606,-25.599606c-3.032706,-2.854311 -7.09118,-4.593658 -11.59564,-4.593658c-9.276512,0 -16.858277,7.537166 -16.858277,16.813679l0,47.051541c0,18.597623 15.074332,33.671956 33.671956,33.671956l137.36374,0c18.597623,0 33.671956,-15.074332 33.671956,-33.671956c0.044599,-18.597623 -15.029734,-33.671956 -33.627357,-33.671956z"/>
            <path stroke="null" id="svg_15" fill="#A4A9AD" d="m298.296237,310.051142l-64.222008,0c-3.523291,0 -6.377602,-2.854311 -6.377602,-6.377602s2.854311,-6.377602 6.377602,-6.377602l64.222008,0c3.523291,0 6.377602,2.854311 6.377602,6.377602s-2.854311,6.377602 -6.377602,6.377602z"/>
            <path stroke="null" id="svg_16" fill="#0071CE" d="m368.851249,266.478294l-34.385534,0c-6.511398,0 -11.818633,5.262637 -11.818633,11.818633c0,6.511398 5.262637,11.818633 11.818633,11.818633l44.018835,0l0,-0.044599c0,-9.231914 -3.701685,-17.527256 -9.633301,-23.592668z"/>
            <path stroke="null" id="svg_17" fill="#333E48" d="m331.343812,336.854911m-13.156592,0a13.156592,13.156592 0 1 0 26.313184,0a13.156592,13.156592 0 1 0 -26.313184,0z"/>
            <path stroke="null" id="svg_18" fill="#333E48" d="m242.770959,336.854911m-13.156592,0a13.156592,13.156592 0 1 0 26.313184,0a13.156592,13.156592 0 1 0 -26.313184,0z"/>
            <path stroke="null" id="svg_19" fill="#0071CE" d="m227.785824,256.354408l-25.599606,-25.599606c-3.032706,-2.854311 -7.09118,-4.593658 -11.59564,-4.593658c-9.276512,0 -16.858277,7.537166 -16.858277,16.813679l0,47.051541c0,11.640239 5.931616,21.942519 14.940537,27.963333c6.333004,-20.827554 26.669973,-61.635288 83.444012,-61.635288l-44.331025,0z"/>
            <path stroke="null" id="svg_20" fill="#00B3E3" d="m210.436962,239.050144c-14.895938,5.351834 -27.517347,14.271557 -36.704662,22.923689l0,18.954412c7.180377,-9.276512 24.127852,-25.644205 46.828548,-31.709617l-10.123886,-10.168485z"/>
            <path stroke="null" id="svg_21" fill="#FFB819" d="m322.647082,149.22853m-40.495544,0a40.495544,40.495544 0 1 0 80.991088,0a40.495544,40.495544 0 1 0 -80.991088,0z"/>
        </g>
    </g>
</svg>